<?xml version="1.0" encoding="UTF-8"?><svg id="uuid-474d612b-2088-4a88-8711-01f71d3c2570" xmlns="http://www.w3.org/2000/svg" xmlns:xlink="http://www.w3.org/1999/xlink" viewBox="0 0 959.1 300.7"><defs><linearGradient id="uuid-83b9140a-d826-41c1-8332-17b4805c5912" x1="511.9" y1="50" x2="602.8" y2="92.1" gradientUnits="userSpaceOnUse"><stop offset="0" stop-color="#cce0f4"/><stop offset="0" stop-color="#c2dcf4" stop-opacity="1"/><stop offset="0" stop-color="#a9d3f4" stop-opacity=".9"/><stop offset="0" stop-color="#7fc5f5" stop-opacity=".9"/><stop offset="0" stop-color="#45b1f7" stop-opacity=".8"/><stop offset="0" stop-color="#0099f9" stop-opacity=".7"/><stop offset="1" stop-color="#0056fb"/></linearGradient><linearGradient id="uuid-1e2d7fec-4291-4f51-9573-af171bc05902" x1="288.9" y1="66.4" x2="647.6" y2="232.6" xlink:href="#uuid-83b9140a-d826-41c1-8332-17b4805c5912"/><linearGradient id="uuid-bed34d26-af7c-45e6-bd4c-ce70ae02d711" x1="333.6" y1="206.8" x2="422" y2="247.8" xlink:href="#uuid-83b9140a-d826-41c1-8332-17b4805c5912"/></defs><path d="M82.2,285.2c-9.9-.1-18.9-3.1-28.1-6.7-8.4-3.3-15.5-8.3-22.6-13.8-1.8-1.4-2.9-2.9-4.5-4.4-10-10-17.4-24.6-19.6-38.6-1-3.3-1.3-6.6-1.7-10h50.9c2.3,17.2,14,29.4,31.5,31.5l113-.3c8.7,0,19.1-7.4,25-14.5s7.2-13,7.7-20.4c1.1-15.5-6.8-29.4-20.7-36.2s-8.4-3.9-13.2-3.9l-112.5-.5c-13.8,0-26.4-4.8-38.2-10.7s-9.7-6.3-14-9.9c-11.8-9.9-20.2-26.6-21.9-42-.6-5.4-.5-10.8,0-16.2,1.3-16,8.2-30.4,18.8-42.3s15.6-15.4,25.6-20l6.5-3c10.4-4.8,18.5-6.7,30-8s3.4-.6,5-.6h41.9s65.3.2,65.3.2c16,0,30.9,6.2,43.5,15.5s18.5,18.1,23.8,30.3,5.1,17.4,6.5,26.5h-5c-7.2.1-11.5.1-12.7.1h-30.9c-1.1-13.2-7.7-23.1-20-27.9-7.5-2.7-14.9-2.2-22.8-2.2l-96.5.5c-6.3,0-16.1,5.4-21.3,9.7-14.1,11.9-16.5,34.8-3.9,47,5.7,5.5,13.1,10,21.4,10.1l110,.4,6.2.5c25.3,2.2,50.3,15.9,64,37.3s6.6,10.5,8.2,16.6,2.3,7.1,2.9,10.8,1.4,7.9,1.5,12.5v8.2c0,37-40.4,73.6-76.4,74.6" style="fill:#090a0c;"/><path d="M792.4,4.7c-87.2,0-157.9,65.1-157.9,145.4s70.7,145.4,157.9,145.4,157.9-65.1,157.9-145.4S879.6,4.7,792.4,4.7ZM792.4,250.1c-59.2,0-107.1-44.8-107.1-100s48-100,107.1-100,107.1,44.8,107.1,100-48,100-107.1,100Z" style="stroke:#000; stroke-miterlimit:10; stroke-width:2px;"/><polygon points="619.7 55.7 476.6 126.1 564.7 7.5 619.7 7.5 619.7 55.7" style="fill:url(#uuid-83b9140a-d826-41c1-8332-17b4805c5912);"/><polygon points="374.6 7.5 476.6 126.1 619.7 292.7 564.1 292.6 457.9 170.4 316.2 7.5 374.6 7.5" style="fill:url(#uuid-1e2d7fec-4291-4f51-9573-af171bc05902);"/><polygon points="316.2 244.5 457.9 170.4 371.1 292.7 316.2 292.7 316.2 244.5" style="fill:url(#uuid-bed34d26-af7c-45e6-bd4c-ce70ae02d711);"/></svg>